<svg id="logosandtypes_com" xmlns="http://www.w3.org/2000/svg" viewBox="0 0 150 150"><style>.st1{fill:#fdb813}</style><path d="M0 0h150v150H0V0z" fill="none" id="Layer_3"/><g id="vietnam_post"><path class="st1" d="M60.9 82.4h53.3l6.6-7.4H67.6l-6.7 7.4M70.9 71.3h53.3l6.6-7.4H77.5l-6.6 7.4M80.9 60.2h53.3l6.6-7.4H87.5l-6.6 7.4M148.3 41h-47.8c-1.6 0-3.1.7-4.1 1.9l-5.6 6.3h53.3l5.3-5.8c.2-.2.3-.6.3-.9 0-.8-.6-1.4-1.4-1.5"/><path class="st1" d="M46.5 96.7c0 .6-.5 1.1-1.1 1.1-.2 0-.4-.1-.6-.2l-25.6-17c-.5-.4-.5-1-.2-1.5.2-.2.5-.4.8-.4h25.6c.6 0 1 .5 1.1 1v17zm10.8-10.6v-6.6c0-.9-.5-1.8-1.2-2.4L30.6 60.2c-1-.7-2.3-.7-3.3 0L1.8 77.1c-.7.6-1.2 1.4-1.2 2.4s.5 1.9 1.2 2.5l39.5 26.5c1.1.8 2.5 1.2 3.9 1.2h40.7c2.3 0 4.6-1 6.2-2.7l18.8-21-53.6.1z"/></g></svg>